<svg width="100" height="100" viewBox="0 0 100 100" xmlns="http://www.w3.org/2000/svg">
  <!-- 背景圆形 -->
  <circle cx="50" cy="50" r="48" fill="#f8fafc" stroke="#e2e8f0" stroke-width="2"/>
  
  <!-- 主心形 -->
  <path d="M50 30 C35 15 20 25 20 40 C20 55 35 65 50 75 C65 65 80 55 80 40 C80 25 65 15 50 30 Z" fill="#ef4444" opacity="0.8"/>
  
  <!-- 心形内部高光 -->
  <path d="M50 35 C40 25 30 30 30 40 C30 50 40 55 50 65 C60 55 70 50 70 40 C70 30 60 25 50 35 Z" fill="#fca5a5" opacity="0.6"/>
  
  <!-- 表白墙元素 - 公告板 -->
  <rect x="35" y="45" width="30" height="20" rx="2" fill="#ffffff" stroke="#94a3b8" stroke-width="1.5" opacity="0.9"/>
  
  <!-- 表白内容 - 线条 -->
  <line x1="40" y1="52" x2="65" y2="52" stroke="#64748b" stroke-width="1.5" stroke-linecap="round"/>
  <line x1="40" y1="57" x2="55" y2="57" stroke="#64748b" stroke-width="1.5" stroke-linecap="round"/>
  <line x1="40" y1="62" x2="60" y2="62" stroke="#64748b" stroke-width="1.5" stroke-linecap="round"/>
  
  <!-- 装饰元素 - 小爱心 -->
  <path d="M45 38 C43 36 40 37 40 40 C40 43 43 44 45 42 C47 44 50 43 50 40 C50 37 47 36 45 38 Z" fill="#f472b6" opacity="0.8"/>
  <path d="M55 38 C53 36 50 37 50 40 C50 43 53 44 55 42 C57 44 60 43 60 40 C60 37 57 36 55 38 Z" fill="#f472b6" opacity="0.8"/>
</svg>